HIERARCHY
ROOT Hips
{
	OFFSET 0.000000 0.000000 0.000000 
	CHANNELS 6 Xposition Yposition Zposition Zrotation Yrotation Xrotation
	JOINT LeftUpLeg
	{
		OFFSET 1.363060 -1.794630 0.839290 
		CHANNELS 3 Zrotation Yrotation Xrotation
		JOINT LeftLeg
		{
			OFFSET 2.448110 -6.726130 0.000000 
			CHANNELS 3 Zrotation Yrotation Xrotation
			JOINT LeftFoot
			{
				OFFSET 2.562200 -7.039590 0.000000 
				CHANNELS 3 Zrotation Yrotation Xrotation
				JOINT LeftToeBase
				{
					OFFSET 0.157640 -0.433110 2.322550 
					CHANNELS 3 Zrotation Yrotation Xrotation
					End Site
					{
						OFFSET 0.000000 0.000000 0.000000 
					}
				}
			}
		}
	}
	JOINT RightUpLeg
	{
		OFFSET -1.305520 -1.794630 0.839290 
		CHANNELS 3 Zrotation Yrotation Xrotation
		JOINT RightLeg
		{
			OFFSET -2.542530 -6.985550 0.000000 
			CHANNELS 3 Zrotation Yrotation Xrotation
			JOINT RightFoot
			{
				OFFSET -2.568260 -7.056230 0.000000 
				CHANNELS 3 Zrotation Yrotation Xrotation
				JOINT RightToeBase
				{
					OFFSET -0.164730 -0.452590 2.363150 
					CHANNELS 3 Zrotation Yrotation Xrotation
					End Site
					{
						OFFSET 0.000000 0.000000 0.000000 
					}
				}
			}
		}
	}
	JOINT Spine
	{
		OFFSET 0.028270 2.035590 -0.193380 
		CHANNELS 3 Zrotation Yrotation Xrotation
		JOINT Spine1
		{
			OFFSET 0.056720 2.048850 -0.042750 
			CHANNELS 3 Zrotation Yrotation Xrotation
			JOINT Neck1
			{
				OFFSET -0.054170 1.746240 0.172020 
				CHANNELS 3 Zrotation Yrotation Xrotation
				JOINT Head
				{
					OFFSET 0.104070 1.761360 -0.123970 
					CHANNELS 3 Zrotation Yrotation Xrotation
					End Site
					{
						OFFSET 0.000000 0.000000 0.000000 
					}
				}
			}
			JOINT LeftArm
			{
				OFFSET 3.362410 1.200890 -0.311210 
				CHANNELS 3 Zrotation Yrotation Xrotation
				JOINT LeftForeArm
				{
					OFFSET 4.983000 -0.000000 -0.000000 
					CHANNELS 3 Zrotation Yrotation Xrotation
					JOINT LeftHand
					{
						OFFSET 3.483560 -0.000000 -0.000000 
						CHANNELS 3 Zrotation Yrotation Xrotation
						JOINT LeftHandIndex1
						{
							OFFSET 0.715260 -0.000000 -0.000000 
							CHANNELS 3 Zrotation Yrotation Xrotation
							End Site
							{
								OFFSET 0.000000 0.000000 0.000000 
							}
						}
					}
				}
			}
			JOINT RightArm
			{
				OFFSET -3.136600 1.374050 -0.404650 
				CHANNELS 3 Zrotation Yrotation Xrotation
				JOINT RightForeArm
				{
					OFFSET -5.241900 -0.000000 -0.000000 
					CHANNELS 3 Zrotation Yrotation Xrotation
					JOINT RightHand
					{
						OFFSET -3.444170 -0.000000 -0.000000 
						CHANNELS 3 Zrotation Yrotation Xrotation
						JOINT RightHandIndex1
						{
							OFFSET -0.622530 -0.000000 -0.000000 
							CHANNELS 3 Zrotation Yrotation Xrotation
							End Site
							{
								OFFSET 0.000000 0.000000 0.000000 
							}
						}
					}
				}
			}
		}
	}
}
MOTION
Frames: 13
Frame Time: 0.041667
0.778345 17.650170 5.701525 -178.731857 29.534889 -128.422017 -7.130915 8.021948 -33.951720 -0.207058 9.900864 28.355053 7.904001 -7.592847 63.834731 0.293600 3.484600 9.630900 6.297755 5.045280 -85.115575 -10.994428 -20.457460 59.141302 3.731822 -11.798262 8.310804 -4.156400 12.365700 -37.038100 0.633985 1.742782 -0.686300 2.106593 1.479040 -2.102533 2.476054 0.782052 -10.824270 -1.142500 0.764600 -6.927200 -38.529372 -47.827922 39.045101 8.208363 -12.385624 -1.832974 -0.118567 -4.642368 2.558376 -7.125000 0.000000 0.000000 39.857420 40.991513 44.304810 -14.959037 18.647460 -3.978854 2.837215 1.422242 13.102698 7.125000 0.000000 0.000000 
0.983309 17.669632 5.075609 -178.752332 29.500531 -129.346416 -5.495295 6.650435 -30.697631 -0.279172 9.295601 25.803639 8.285820 -3.469458 65.238069 0.323100 3.653800 10.104700 7.731757 3.975112 -84.841765 -9.242528 -19.720512 54.585931 2.671236 -9.721304 11.044382 -4.561600 12.872400 -38.892800 0.679706 1.747043 -0.707037 2.473819 1.484311 -2.019980 2.376429 0.959147 -10.436796 -1.230700 0.772600 -6.740800 -42.822399 -46.631071 39.819903 8.268803 -12.868253 -1.835932 0.092481 -4.144327 5.952417 -7.125000 0.000000 0.000000 43.356702 39.553430 46.250065 -15.334526 19.433398 -4.256792 2.970064 1.305852 12.692295 7.125000 0.000000 0.000000 
1.186585 17.659282 4.454643 -178.917135 29.466339 -130.389873 -4.065314 4.612967 -27.603418 -0.320365 8.926693 24.125225 8.429492 0.348891 65.448588 0.301700 3.531800 9.762900 9.200939 2.782475 -84.363965 -7.563467 -18.883044 50.321567 1.454782 -7.434023 14.220299 -4.857900 13.222000 -40.205200 0.729505 1.673644 -0.745593 2.831846 1.442035 -2.087009 2.314644 1.122122 -10.029918 -1.300500 0.779000 -6.527500 -47.216383 -44.809822 39.996324 8.266254 -13.420242 -1.821556 0.153952 -3.453144 9.984194 -7.125000 0.000000 0.000000 46.688065 37.615702 48.200536 -15.691689 20.310371 -4.545299 3.064834 1.194770 12.563518 7.125000 0.000000 0.000000 
1.388511 17.621710 3.840652 -179.164934 29.404130 -131.505385 -3.001509 2.223522 -24.735379 -0.228185 8.854032 23.354582 8.241208 3.976148 64.747851 0.240600 3.156800 8.715500 10.670402 1.536583 -83.752713 -6.065846 -18.019391 46.541334 0.360758 -5.506370 17.500302 -4.989100 13.371500 -40.775500 0.782495 1.555472 -0.800126 3.154402 1.370739 -2.288354 2.285062 1.262724 -9.638292 -1.358400 0.781000 -6.308400 -51.534956 -42.418217 39.838789 8.268074 -14.035282 -1.839318 0.098883 -2.704862 13.534544 -7.125000 0.000000 0.000000 49.746261 35.220105 50.081994 -16.009808 21.211625 -4.826253 3.126380 1.067492 12.763599 7.125000 0.000000 0.000000 
1.589988 17.562088 3.236898 -179.426112 29.293737 -132.618287 -2.398744 -0.134758 -22.182772 0.111183 9.132295 23.507108 7.735818 7.492244 63.480405 0.211100 2.958200 8.162500 12.112284 0.332182 -83.113252 -4.869841 -17.240089 43.474127 -0.415541 -4.328927 20.506205 -4.928500 13.302900 -40.513000 0.837336 1.432704 -0.868767 3.425866 1.290360 -2.597463 2.280574 1.366409 -9.292565 -1.408100 0.773200 -6.101900 -55.613141 -39.532464 39.872495 8.414277 -14.788935 -1.932831 -0.087293 -2.027141 15.406435 -7.125000 0.000000 0.000000 52.483151 32.397373 51.803209 -16.302394 22.118666 -5.104088 3.167486 0.933630 13.287379 7.125000 0.000000 0.000000 
1.791914 17.489867 2.643268 -179.612199 29.152733 -133.665722 -2.269842 -2.107610 -20.032846 0.760384 9.759075 24.586408 6.984628 10.819749 61.914505 0.200400 2.882900 7.952800 13.436118 -0.702914 -82.479197 -4.085019 -16.672616 41.349607 -0.759501 -4.098306 22.747728 -4.692000 13.028300 -39.474500 0.889113 1.340955 -0.948047 3.619423 1.220166 -2.977703 2.291720 1.433229 -9.012691 -1.451100 0.756800 -5.918500 -59.307594 -36.300791 40.236238 8.752029 -15.706318 -2.116506 -0.389870 -1.515032 15.203017 -7.125000 0.000000 0.000000 54.877623 29.252939 53.323790 -16.567267 22.993656 -5.370373 3.190572 0.809062 13.992994 7.125000 0.000000 0.000000 
1.994178 17.412358 2.061000 -179.655036 29.023822 -134.571116 -2.552197 -3.561765 -18.348747 1.688749 10.653774 26.600214 6.114951 13.431683 60.234907 0.205800 2.921100 8.059100 14.504994 -1.427912 -81.895396 -3.787177 -16.418478 40.317293 -0.592470 -4.938629 23.952136 -4.395800 12.669300 -38.142800 0.933154 1.303255 -1.034536 3.725642 1.171637 -3.383247 2.311606 1.468278 -8.810518 -1.487300 0.735100 -5.762700 -62.503797 -32.872116 41.004677 9.279285 -16.787267 -2.383762 -0.746874 -1.222717 13.037596 -7.125000 0.000000 0.000000 56.960259 25.890842 54.634496 -16.802677 23.813517 -5.618937 3.198655 0.699852 14.723084 7.125000 0.000000 0.000000 
2.195205 17.335863 1.490431 -179.565173 28.899420 -135.328111 -3.144658 -4.575042 -17.136934 2.836044 11.718513 29.541867 5.280421 14.835870 58.576637 0.197200 2.859500 7.887900 15.191797 -1.808870 -81.343745 -3.988629 -16.505565 40.413968 0.075089 -6.736616 24.071085 -4.071400 12.254800 -36.639300 0.969135 1.311440 -1.127291 3.738839 1.144103 -3.788661 2.327449 1.471382 -8.695529 -1.519000 0.708900 -5.639300 -65.186423 -29.392102 42.117966 9.947060 -17.981519 -2.710900 -1.133119 -1.107774 9.484770 -7.125000 0.000000 0.000000 58.753362 22.401051 55.724372 -16.996249 24.554749 -5.839461 3.191652 0.614081 15.352884 7.125000 0.000000 0.000000 
2.392519 17.263304 0.930437 -179.352812 28.753880 -135.910716 -3.931600 -5.283125 -16.419775 4.150377 12.874113 33.392422 4.602393 14.784516 57.017536 0.175900 2.701600 7.448900 15.491723 -1.872443 -80.849080 -4.624464 -16.880670 41.544860 1.127759 -9.149042 23.264464 -3.727000 11.788000 -34.985900 0.998687 1.341812 -1.223840 3.659567 1.126773 -4.157727 2.327348 1.456428 -8.669630 -1.549800 0.685300 -5.552700 -67.363497 -25.975625 43.378562 10.673813 -19.205841 -3.069369 -1.496687 -1.108591 5.474668 -7.125000 0.000000 0.000000 60.284612 18.879744 56.613699 -17.141734 25.207575 -6.025953 3.168650 0.554887 15.797022 7.125000 0.000000 0.000000 
2.583983 17.195133 0.379442 -179.039464 28.540122 -136.312942 -4.790560 -5.820980 -16.220334 5.584414 14.061506 38.099310 4.175513 13.234228 55.668380 0.154400 2.532200 6.978800 15.479730 -1.712872 -80.412611 -5.576864 -17.434958 43.505851 2.397873 -11.766960 21.712007 -3.380900 11.287500 -33.255700 1.025466 1.366336 -1.323917 3.495031 1.107023 -4.476579 2.300459 1.436941 -8.732163 -1.582300 0.671200 -5.506600 -69.086130 -22.695049 44.550453 11.378918 -20.374617 -3.427088 -1.777534 -1.157867 1.943944 -7.125000 0.000000 0.000000 61.575501 15.409117 57.359942 -17.256795 25.788873 -6.184810 3.128465 0.545783 16.011844 7.125000 0.000000 0.000000 
2.768811 17.130561 -0.164129 -178.668370 28.226301 -136.558460 -5.621911 -6.269385 -16.560309 7.127037 15.240800 43.568349 3.939045 10.558471 54.410999 0.135900 2.375700 6.545200 15.270280 -1.458783 -80.007864 -6.692372 -18.041880 46.010176 3.682663 -14.180422 19.634678 -3.047400 10.771400 -31.512800 1.054006 1.368498 -1.428179 3.280858 1.076380 -4.749387 2.245387 1.422949 -8.880889 -1.614800 0.672100 -5.501500 -70.446437 -19.593576 45.422374 11.999071 -21.418889 -3.755280 -1.941950 -1.205993 -0.376947 -7.125000 0.000000 0.000000 62.641569 12.070631 57.977241 -17.310537 26.265650 -6.299541 3.077851 0.558042 16.094771 7.125000 0.000000 0.000000 
2.948913 17.070152 -0.701174 -178.264006 27.816552 -136.669661 -6.334275 -6.643783 -17.453007 8.774840 16.366271 49.627658 3.802198 7.296187 53.109624 0.125900 2.287600 6.301200 14.990451 -1.211756 -79.578488 -7.822903 -18.601961 48.736625 4.836287 -16.163434 17.255462 -2.758000 10.292700 -29.929700 1.085979 1.341659 -1.537340 3.056772 1.031226 -4.992886 2.165150 1.431392 -9.115207 -1.647500 0.695100 -5.539400 -71.515289 -16.659130 45.868906 12.501720 -22.310805 -4.039998 -1.988677 -1.218669 -1.194663 -7.125000 0.000000 0.000000 63.522273 8.935730 58.495545 -17.290589 26.621090 -6.361355 3.019203 0.586084 16.167506 7.125000 0.000000 0.000000 
3.127329 17.017280 -1.233945 -177.850255 27.321708 -136.680042 -6.856244 -6.946577 -18.868143 10.510061 17.384326 56.045381 3.705233 3.948241 51.696002 0.128200 2.308200 6.358200 14.767399 -1.068951 -79.062444 -8.840927 -19.051428 51.395371 5.737717 -17.529385 14.755881 -2.541700 9.913300 -28.696500 1.122172 1.286846 -1.652122 2.857564 0.971657 -5.226229 2.064667 1.466306 -9.420647 -1.680700 0.740300 -5.610100 -72.359552 -13.863647 45.814980 12.887832 -23.060605 -4.285914 -1.931466 -1.195166 -0.540388 -7.125000 0.000000 0.000000 64.252692 6.037229 58.902490 -17.191428 26.850253 -6.368781 2.957916 0.614408 16.366002 7.125000 0.000000 0.000000 
